<svg viewBox="0 0 64 64" xmlns="http://www.w3.org/2000/svg"><path d="m26.3 60.5c-.8 0-2.6.7-3.2.1-.8-.8 0-4.6 0-4.6h-2.3s.8 3.8 0 4.6c-.6.5-2.4-.1-3.2-.1-2 0-3.7 1.5-3.7 1.5h16c.1 0-1.5-1.5-3.6-1.5m20 0c-.8 0-2.6.7-3.2.1-.8-.8 0-4.6 0-4.6h-2.3s.8 3.8 0 4.6c-.6.5-2.4-.1-3.2-.1-2 0-3.7 1.5-3.7 1.5h16c.1 0-1.5-1.5-3.6-1.5" fill="#e08828"/><g fill="#3e4347"><path d="m10.4 27c-10.8 6.7-8.7 16-7.1 14.9 16.7-12.2 20.9-23.4 7.1-14.9zm43.2 0c-13.8-8.5-9.6 2.7 7.1 14.9 1.6 1.1 3.7-8.2-7.1-14.9"/><path d="m48 17.5c0-8.6-7.2-15.5-16-15.5s-16 6.9-16 15.5c0 11.6-4 15.5-4 23.2 0 10.6 9 19.3 20 19.3s20-8.7 20-19.3c0-7.7-4-11.6-4-23.2"/></g><path d="m44 18.8c0-12.4-10.1-10-10.1-.7h-3.7c-.1-9.3-10.2-11.7-10.2.7 0 9.7-4 15.7-4 22.1 0 11.6 7.7 17.1 16 17.1s16-5.6 16-17.1c0-6.4-4-12.4-4-22.1" fill="#fff"/><path d="m41 17c0 1.7-.9 3-2 3s-2-1.3-2-3 .9-3 2-3 2 1.3 2 3m-14 0c0 1.7-.9 3-2 3s-2-1.3-2-3 .9-3 2-3 2 1.3 2 3" fill="#3e4347"/><path d="m28 22h8c0 2.5-1.8 4.6-4 4.6s-4-2-4-4.6" fill="#e08828"/><path d="m37 22.3-5 1.2-5-1.2c0-3.2 2.2-5.7 5-5.7s5 2.6 5 5.7" fill="#f29a2e"/><path d="m33.7 17.8c.3.3.4.7.3.9s-.5 0-.8-.3-.4-.7-.3-.9c.2-.1.6 0 .8.3m-3.4 0c-.3.3-.4.7-.3.9s.5 0 .8-.3.4-.7.3-.9c-.2-.1-.6 0-.8.3" fill="#3e4347"/></svg>